<svg width="24" height="24" viewBox="0 0 24 24" fill="none" xmlns="http://www.w3.org/2000/svg">
<path d="M9.59 12.0018C9.59 10.6718 10.672 9.58984 12.002 9.58984C13.332 9.58984 14.414 10.6718 14.414 12.0018C14.414 13.3318 13.332 14.4138 12.002 14.4138C10.672 14.4138 9.59 13.3318 9.59 12.0018Z" fill="white"/>
<path fill-rule="evenodd" clip-rule="evenodd" d="M2.25 12.0022C2.25 8.46819 6.6 4.2002 12.002 4.2002C17.4039 4.2002 21.754 8.46819 21.754 12.0022C21.754 15.5362 17.4039 19.8042 12.002 19.8042C6.6 19.8042 2.25 15.5362 2.25 12.0022ZM8.09 12.0022C8.09 14.1592 9.84495 15.9142 12.002 15.9142C14.159 15.9142 15.914 14.1592 15.914 12.0022C15.914 9.8452 14.159 8.0902 12.002 8.0902C9.84495 8.0902 8.09 9.8452 8.09 12.0022Z" fill="white"/>
</svg>
