
<svg width="90" height="16" viewBox="0 0 90 16" fill="none" xmlns="http://www.w3.org/2000/svg">
<g clip-path="url(#clip0_5779_94249)">
<path d="M28.5842 3.22332V7.23555H31.4373C33.3797 7.23555 34.4167 6.72618 34.4167 5.21062C34.4167 3.69505 33.3877 3.22583 31.4615 3.22583H28.5842V3.22332ZM24.8848 0.307617H32.2137C34.1238 0.307617 35.6391 0.734183 36.762 1.58982C37.885 2.44547 38.4465 3.46922 38.4465 5.16545C38.4465 6.86168 37.8877 8.02846 36.7755 8.8841C35.6605 9.73975 34.0056 10.1663 32.2083 10.1663H28.5868V15.4984H24.8875V0.307617H24.8848Z" fill="white"/>
<path d="M56.1456 9.7339C55.9508 11.7294 55.1442 12.6317 53.8108 13.8079C52.4774 14.9841 50.8532 15.6954 48.5294 15.6954C46.0081 15.6954 43.9833 15.1827 42.4469 13.6546C40.9105 12.1291 40.0737 10.1084 40.0737 7.59008C40.0737 5.2075 40.8502 3.69702 42.403 2.11869C43.9559 0.540354 46.0904 0 48.6776 0C50.7407 0 52.3375 0.598159 53.734 1.66881C55.1304 2.74198 55.9041 4.22732 56.0495 5.88106H52.4555C52.2607 5.00392 51.8244 4.26 51.1523 3.77494C50.4773 3.29239 49.6296 2.79979 48.6035 2.79979C47.5774 2.79979 46.6583 3.07122 45.934 3.61409C45.2097 4.15695 44.7707 4.76265 44.4772 5.5493C44.1644 6.39376 44.1068 6.98187 44.1068 7.85649C44.1068 9.32927 44.3839 10.3044 45.2152 11.2796C46.0437 12.2547 47.1576 12.7423 48.5541 12.7423C50.4472 12.7423 52.1345 11.6138 52.3924 9.72888H56.1483L56.1456 9.7339Z" fill="white"/>
<path d="M72.6433 0.307617L68.4305 7.48062L73.222 15.4984H69.0146L65.569 9.48192L64.8906 9.46432L61.4154 15.4984H57.2241L62.0399 7.48062L57.7571 0.307617H61.9753L65.0898 5.74331H65.4263L68.5274 0.307617H72.6433Z" fill="white"/>
<path d="M85.7312 10.3459C85.7312 9.49139 84.8594 8.56648 83.4466 8.56648H79.7007V12.4597H83.4708C85.045 12.4597 85.7312 11.3814 85.7312 10.3459ZM79.7007 6.00538H83.6834C85.4864 6.00538 86.9449 6.12099 88.0589 6.97804C89.1757 7.83509 89.7327 8.7223 89.7327 10.3912C89.7327 12.06 89.1703 13.3645 88.0455 14.2215C86.9206 15.0786 85.4029 15.5058 83.4896 15.4983H75.9253V0.307617H88.5514V3.22813H79.698V6.00286L79.7007 6.00538Z" fill="white"/>
<g clip-path="url(#clip1_5779_94249)">
<path d="M17.9844 0.558594H11.4102V15.7479H17.9844V0.558594Z" fill="white"/>
<path d="M9.6982 0.558594H4.83545V15.7479H9.6982V0.558594Z" fill="white"/>
<path d="M3.28711 0.558594H0V15.7479H3.28711V0.558594Z" fill="white"/>
<path d="M20.1034 1.43926H20.2664C20.2392 1.53986 20.1849 1.6153 20.1306 1.69074C20.0491 1.74104 19.9676 1.79133 19.8589 1.79133C19.7231 1.79133 19.5872 1.74104 19.5057 1.6656C19.4242 1.565 19.3699 1.46441 19.3699 1.31352C19.3699 1.16264 19.4242 1.06204 19.5057 0.961452C19.5872 0.860861 19.7231 0.835713 19.8589 0.835713C19.9676 0.835713 20.0491 0.860862 20.1306 0.911157C20.2121 0.961453 20.2664 1.0369 20.2664 1.13749H20.1306C20.1306 1.08719 20.0762 1.0369 20.0491 1.01175C19.9947 0.9866 19.9404 0.961452 19.8861 0.961452C19.7774 0.961452 19.6959 0.986601 19.6416 1.06204C19.5872 1.11234 19.5601 1.21293 19.5601 1.31352C19.5601 1.41412 19.5872 1.48956 19.6416 1.565C19.6959 1.64045 19.7774 1.6656 19.8861 1.6656C19.9676 1.6656 20.0219 1.64045 20.0491 1.6153C20.0762 1.53985 20.1034 1.48956 20.1034 1.43926ZM19.1254 1.28838C19.1254 1.46441 19.1797 1.6153 19.3156 1.74104C19.4514 1.86678 19.6144 1.91707 19.8046 1.91707C19.9947 1.91707 20.1577 1.86678 20.2935 1.74104C20.4294 1.6153 20.4837 1.46441 20.4837 1.28838C20.4837 1.11234 20.4294 0.961452 20.2935 0.835713C20.1577 0.709973 19.9947 0.659678 19.8046 0.659678C19.6144 0.659678 19.4514 0.709973 19.3156 0.835713C19.2069 0.961452 19.1254 1.11234 19.1254 1.28838ZM19.8046 2.06796C19.5601 2.06796 19.3699 1.99252 19.2069 1.84163C19.0439 1.69074 18.9624 1.51471 18.9624 1.28838C18.9624 1.06204 19.0439 0.886008 19.2069 0.735121C19.3699 0.584233 19.5601 0.508789 19.8046 0.508789C20.0219 0.508789 20.2392 0.584233 20.4022 0.735121C20.5652 0.886008 20.6467 1.06204 20.6467 1.28838C20.6467 1.51471 20.5652 1.69074 20.4022 1.84163C20.2392 1.99252 20.0491 2.06796 19.8046 2.06796Z" fill="white"/>
</g>
</g>
<defs>
<clipPath id="clip0_5779_94249">
<rect width="90" height="16" fill="white"/>
</clipPath>
<clipPath id="clip1_5779_94249">
<rect width="20.6797" height="15.6923" fill="white" transform="translate(0 0.307617)"/>
</clipPath>
</defs>
</svg>
