<svg width="64" height="32" viewBox="0 0 64 32" fill="none" xmlns="http://www.w3.org/2000/svg">
<path opacity="0.8" fill-rule="evenodd" clip-rule="evenodd" d="M54.4511 8C58.6021 8 60.5179 11.5546 59.8793 14.4629H49.8212C46.7878 14.4629 43.9141 11.393 43.5948 8H54.4511ZM9.26853 8.48786H4V23.9989H8.94923V14.7892H9.42819L12.1423 23.9989H15.9739L18.688 14.7892H19.0073V23.9989H24.1162V8.48786H19.167C19.1299 8.48786 19.0896 8.48732 19.0464 8.48674C18.3462 8.47727 16.8948 8.45765 16.2932 10.5883C16.1938 10.9407 16.0478 11.4185 15.865 12.0168C15.4611 13.3391 14.8773 15.2503 14.2178 17.6976H13.8985L13.8984 17.6975C12.9405 14.3045 12.3019 12.0425 11.823 10.5883C11.2206 8.45475 9.90811 8.47733 9.35908 8.48677C9.32602 8.48734 9.29573 8.48786 9.26853 8.48786ZM31.3006 8.48786H26.1917V23.9989H30.9813C30.9813 23.9989 32.5778 23.8374 33.2164 22.3832L36.5691 14.7892H36.8884V23.9989H41.9973V8.48786H37.2077C37.2077 8.48786 35.7709 8.64944 35.1322 10.1036L31.7795 17.6976H31.3006V8.48786ZM48.8624 23.9989V19.3133H54.2906C56.845 19.3133 59.0801 17.8591 59.7187 15.9202H44.0728V23.9989H48.8624Z" fill="white"/>
</svg>
